{"title":"Irene Huss, The Horse Figurine 2008 DVDrip Swedish/English Klam","uid":6889727,"size":1576522400,"categoryP":"video","categoryS":"movies","magnet":"?xt=urn:btih:25a3da9761b235f85d85cac52f92e1fe89625b25&amp;dn=Irene+Huss%2C+The+Horse+Figurine+2008+DVDrip+Swedish%2FEnglish+Klam&amp;tr=udp%3A%2F%2Ftracker.openbittorrent.com%3A80&amp;tr=udp%3A%2F%2Fopen.demonii.com%3A1337&amp;tr=udp%3A%2F%2Ftracker.coppersurfer.tk%3A6969&amp;tr=udp%3A%2F%2Fexodus.desync.com%3A6969","seeders":0,"leechers":1,"uploader":"Klambake","files":-1,"time":1323966388,"description":"With: Angela Kovacs, Lars Brandeby and Anki LidÃƒÂ©n\n\nEen man springt van een balkon en sterft. Zijn vrouw, getuige van de gebeurtenis, zit in een taxien raakt in shock zodra Irene Huss ter tonele komt...\n\nA man jumps from a balcony and dies. His terrified wife witnesses the event in a nearby taxi cab. Once Irene Huss arrives on the scene..\n\nEnglish softsubs (srt) Included.\n\n------------------------ Dutch Friends ------------------------\n---------------------------------------------------------------\n- Bezoek ook eens mijn vrienden op: &lt;a href=&quot; http://www.Film-Test.nl&quot; rel=&quot;nofollow&quot; target=&quot;_NEW&quot;&gt; http://www.Film-Test.nl&lt;/a&gt; --\n----- voor mijn Nederlandse Sync. ondertitels ---- en meer ----\n------- http://www.Film-Test.nl ---- voor Films en meer -------\n---------------------------------------------------------------\n\nGeneral:\n\nComplete name                    : Irene Huss, The Horse Figurine\\The Horse Figurine.avi\nFormat                           : AVI\nFormat/Info                      : Audio Video Interleave\nFile size                        : 1.47 GiB\nDuration                         : 1h 27mn\nOverall bit rate                 : 2 400 Kbps\n\nVideo:\n\nFormat                           : MPEG-4 Visual\nFormat profile                   : Simple@L3\nFormat settings, BVOP            : No\nFormat settings, QPel            : No\nFormat settings, GMC             : No warppoints\nFormat settings, Matrix          : Default (H.263)\nCodec ID                         : XVID\nCodec ID/Hint                    : XviD\nDuration                         : 1h 27mn\nBit rate                         : 1 941 Kbps\nWidth                            : 652 pixels\nHeight                           : 352 pixels\nDisplay aspect ratio             : 1.852\nFrame rate                       : 25.000 fps\nColor space                      : YUV\nChroma subsampling               : 4:2:0\nBit depth                        : 8 bits\nScan type                        : Progressive\nCompression mode                 : Lossy\nBits/(Pixel*Frame)               : 0.338\nStream size                      : 1.19 GiB (81%)\nWriting library                  : XviD 1.1.2 (UTC 2006-11-01)\n\nAudio:\n\nFormat                           : AC-3\nFormat/Info                      : Audio Coding 3\nMode extension                   : CM (complete main)\nCodec ID                         : 2000\nDuration                         : 1h 27mn\nBit rate mode                    : Constant\nBit rate                         : 448 Kbps\nChannel(s)                       : 6 channels\nChannel positions                : Front: L C R, Side: L R, LFE\nSampling rate                    : 48.0 KHz\nBit depth                        : 16 bits\nCompression mode                 : Lossy\nStream size                      : 281 MiB (19%)\nAlignment                        : Aligned on interleaves\nInterleave, duration             : 32 ms (0.80 video frame)\nInterleave, preload duration     : 32 ms\n","torrent":{"xt":"urn:btih:25a3da9761b235f85d85cac52f92e1fe89625b25","amp;dn":"Irene+Huss%2C+The+Horse+Figurine+2008+DVDrip+Swedish%2FEnglish+Klam","amp;tr":["udp%3A%2F%2Ftracker.openbittorrent.com%3A80","udp%3A%2F%2Fopen.demonii.com%3A1337","udp%3A%2F%2Ftracker.coppersurfer.tk%3A6969","udp%3A%2F%2Fexodus.desync.com%3A6969"],"infoHash":"25a3da9761b235f85d85cac52f92e1fe89625b25","infoHashBuffer":{"type":"Buffer","data":[37,163,218,151,97,178,53,248,93,133,202,197,47,146,225,254,137,98,91,37]},"announce":[],"urlList":[]}}